<svg width="64" height="64" viewBox="0 0 64 64" fill="none" xmlns="http://www.w3.org/2000/svg">
  <!-- Bell Body -->
  <path d="M32 10C24.3 10 18 16.3 18 24V34.5C18 38.3 16.7 42 14.3 45L12 48H52L49.7 45C47.3 42 46 38.3 46 34.5V24C46 16.3 39.7 10 32 10Z" fill="#0F3D91"></path>

  <!-- Bell Highlight -->
  <path d="M32 10C24.3 10 18 16.3 18 24V28C18 20.3 24.3 14 32 14C39.7 14 46 20.3 46 28V24C46 16.3 39.7 10 32 10Z" fill="#1D5ED8"></path>

  <!-- Gold Accent Ring -->
  <path d="M14 48H50" stroke="#F5C542" stroke-width="4" stroke-linecap="round"></path>

  <!-- Clapper -->
  <circle cx="32" cy="52" r="4" fill="#F5C542"></circle>

  <!-- Notification Dot -->
  <circle cx="48" cy="16" r="7" fill="#F5C542"></circle>

  <circle cx="48" cy="16" r="3" fill="#0F3D91"></circle>
</svg>